<?xml version="1.0" encoding="utf-8"?>
<!-- Generator: Adobe Illustrator 20.1.0, SVG Export Plug-In . SVG Version: 6.00 Build 0)  -->
<svg version="1.1" id="Ebene_1" xmlns="http://www.w3.org/2000/svg" xmlns:xlink="http://www.w3.org/1999/xlink" x="0px" y="0px"
	 viewBox="0 0 100 100" style="enable-background:new 0 0 100 100;" xml:space="preserve">
<g id="_x32_0x20_59_">
	<path style="fill:#333333;" d="M45.505,54.158h-8.766v-8.317h8.766v-8.766h8.766v8.766h8.766v8.317h-8.766v8.766h-8.766V54.158z"/>
	<path style="fill:#333333;" d="M90.684,55.282c4.271-2.023,7.193-5.395,7.193-10.789c0-3.372-1.124-6.069-3.147-8.092
		c-2.472-2.472-6.069-3.821-11.463-3.821H66.858V67.42h9.665V56.856h4.271l6.968,10.564H99L90.684,55.282z M83.041,49.438v0.225
		h-6.294v-8.316h6.294c3.147,0,5.17,1.349,5.17,4.046C88.211,47.865,86.413,49.438,83.041,49.438z"/>
	<path style="fill:#333333;" d="M31.119,51.911c-1.349-1.573-3.147-2.472-5.619-3.147c1.798-0.45,2.922-1.349,3.821-2.248
		c1.349-1.573,2.023-3.372,2.023-5.394c0-2.248-0.899-4.495-2.697-6.069c-1.798-1.573-4.271-2.472-7.642-2.472H1V67.42h18.431
		c0.674,0,2.248-0.225,4.72-0.45c1.798-0.225,3.147-0.674,4.046-1.124c1.349-0.899,2.472-1.798,3.372-3.372
		c0.899-1.573,1.349-3.147,1.349-4.945C32.917,55.282,32.468,53.484,31.119,51.911z M12.014,39.548h4.945
		c1.573,0,2.697,0.225,3.372,0.899c0.674,0.674,0.899,1.573,0.899,2.472c0,1.124-0.225,1.798-0.899,2.472
		c-0.674,0.674-2.023,0.899-3.596,0.899h-4.72V39.548z M21.229,58.878c-0.674,0.674-2.023,0.899-3.821,0.899h-5.394V52.81h5.17
		c2.023,0,3.372,0.225,4.046,0.899c0.674,0.674,1.124,1.349,1.124,2.472S21.904,58.204,21.229,58.878z"/>
</g>
</svg>
