<?xml version="1.0" encoding="utf-8"?>
<!-- Generator: Adobe Illustrator 23.0.6, SVG Export Plug-In . SVG Version: 6.00 Build 0)  -->
<svg version="1.1" id="Ebene_1" xmlns="http://www.w3.org/2000/svg" xmlns:xlink="http://www.w3.org/1999/xlink" x="0px" y="0px"
	 viewBox="0 0 16 16" style="enable-background:new 0 0 16 16;" xml:space="preserve">
<style type="text/css">
	.st0{fill:#888888;}
</style>
<g id="_x31_6x16_8_">
	<ellipse class="st0" cx="5.1" cy="3.7" rx="4.9" ry="2"/>
	<path class="st0" d="M5.2,10.8L5.2,10.8c-2.5,0-4.5-0.8-5-1.8C0.1,9.1,0,9.3,0,9.4c0,1.3,2.3,2.3,5.1,2.3c0.1,0,0.2,0,0.3,0
		C5.3,11.4,5.2,11.1,5.2,10.8z"/>
	<path class="st0" d="M5.1,9.8c0-0.3,0.1-0.7,0.1-1H5.1C2.7,8.8,0.7,8,0.2,7C0.1,7.2,0,7.3,0,7.5C0,8.8,2.3,9.8,5.1,9.8L5.1,9.8z"/>
	<path class="st0" d="M5.6,7.8C5.8,7.4,6,7,6.3,6.7c-0.4,0-0.8,0.1-1.2,0.1C2.7,6.8,0.7,6,0.2,5C0.1,5.1,0,5.3,0,5.5
		c0,1.3,2.3,2.3,5.1,2.3C5.3,7.8,5.4,7.8,5.6,7.8z"/>
	<path class="st0" d="M10.9,6.6c-2,0-3.7,1.6-3.7,3.7c0,2,1.6,3.7,3.7,3.7c2,0,3.7-1.6,3.7-3.7C14.5,8.2,12.9,6.6,10.9,6.6z"/>
	<path class="st0" d="M10.9,5.3c-2.7,0-4.9,2.2-4.9,4.9s2.2,4.9,4.9,4.9s4.9-2.2,4.9-4.9c0,0,0,0,0,0C15.8,7.5,13.6,5.3,10.9,5.3
		C10.9,5.3,10.9,5.3,10.9,5.3z M10.9,14.5c-2.4,0-4.3-1.9-4.3-4.3S8.5,6,10.9,6s4.3,1.9,4.3,4.3C15.2,12.6,13.2,14.5,10.9,14.5
		C10.9,14.5,10.9,14.5,10.9,14.5z"/>
</g>
</svg>
