<?xml version="1.0" encoding="UTF-8" standalone="no"?>
<!-- Created with Inkscape (http://www.inkscape.org/) -->

<svg
   xmlns:dc="http://purl.org/dc/elements/1.1/"
   xmlns:cc="http://creativecommons.org/ns#"
   xmlns:rdf="http://www.w3.org/1999/02/22-rdf-syntax-ns#"
   xmlns:svg="http://www.w3.org/2000/svg"
   xmlns="http://www.w3.org/2000/svg"
   version="1.1"
   width="100%"
   height="100%"
   viewBox="0 0 100 100"
   id="Ebene_1"
   xml:space="preserve"><metadata
   id="metadata12"><rdf:RDF><cc:Work
       rdf:about=""><dc:format>image/svg+xml</dc:format><dc:type
         rdf:resource="http://purl.org/dc/dcmitype/StillImage" /><dc:title></dc:title></cc:Work></rdf:RDF></metadata><defs
   id="defs10" />

<g
   transform="matrix(1.1529412,0,0,1.1529412,-7.64706,-7.64706)"
   id="g3"><g
     id="g5"><path
       d="M 50,91.083 C 27.347,91.083 8.917,72.653 8.917,50 8.917,27.347 27.347,8.917 50,8.917 72.653,8.917 91.083,27.347 91.083,50 91.083,72.653 72.653,91.083 50,91.083 z"
       id="path7"
       style="fill:#009ddd" /><path
       d="M 50,10.333 C 71.872,10.333 89.667,28.128 89.667,50 89.667,71.872 71.872,89.667 50,89.667 28.128,89.667 10.333,71.872 10.333,50 10.333,28.128 28.128,10.333 50,10.333 M 50,7.5 C 26.53,7.5 7.5,26.531 7.5,50 7.5,73.475 26.53,92.5 50,92.5 73.473,92.5 92.5,73.475 92.5,50 92.5,26.531 73.473,7.5 50,7.5 l 0,0 z"
       id="path9"
       style="fill:#ffffff" /></g><path
     d="m 59.046,23.125 c 11.228,3.76 19.289,14.357 19.289,26.861 -0.013,15.561 -12.523,28.18 -28.029,28.346 L 59.493,66.84 c 1.457,-1.811 2.35,-4.09 2.466,-6.584 0.19,-3.732 -1.526,-7.143 -4.228,-9.33 l -7.988,-6.391 c -1.48,-1.201 -2.409,-3.021 -2.291,-5.053 0.058,-1.34 0.552,-2.588 1.327,-3.572 L 59.046,23.125 m -7.798,40.941 c 0.751,-0.949 1.244,-2.221 1.291,-3.561 0.118,-2.023 -0.798,-3.865 -2.268,-5.053 l -7.976,-6.383 c -2.703,-2.197 -4.417,-5.604 -4.251,-9.328 0.093,-2.529 1.034,-4.795 2.465,-6.607 l 9.185,-11.469 c -15.492,0.141 -28.026,12.764 -28.026,28.32 0,12.494 8.104,23.117 19.311,26.867 L 51.248,64.066 z"
     id="path11"
     style="fill:#ffffff" /></g></svg>